G04 DipTrace 2.1.9.2*
%INTopSilk.gbr*%
%MOIN*%
%ADD10C,0.0098*%
%ADD11C,0.006*%
%ADD12C,0.003*%
%ADD13C,0.013*%
%ADD14R,0.0591X0.0591*%
%ADD15C,0.0591*%
%ADD16C,0.063*%
%ADD17R,0.063X0.063*%
%ADD18C,0.05*%
%ADD19C,0.05*%
%ADD20C,0.0591*%
%ADD21C,0.048*%
%ADD22C,0.04*%
%ADD23C,0.0191*%
%ADD24C,0.118*%
%ADD25C,0.0354*%
%ADD26C,0.0394*%
%ADD27C,0.022*%
%ADD28C,0.032*%
%ADD29C,0.008*%
%ADD30C,0.048*%
%ADD31C,0.056*%
%ADD32C,0.04*%
%ADD33C,0.0671*%
%ADD34C,0.0511*%
%ADD35C,0.058*%
%ADD36C,0.042*%
%ADD37C,0.058*%
%ADD38C,0.042*%
%ADD39R,0.071X0.071*%
%ADD40R,0.055X0.055*%
%ADD41C,0.071*%
%ADD42C,0.055*%
%ADD43C,0.0671*%
%ADD44C,0.0511*%
%ADD45R,0.0671X0.0671*%
%ADD46R,0.0511X0.0511*%
%ADD47C,0.0077*%
%ADD48C,0.0124*%
%ADD49C,0.0093*%
%FSLAX44Y44*%
%SFA1B1*%
%OFA0B0*%
G04*
G70*
G90*
G75*
G01*
%LNTopSilk*%
%LPD*%
X5940Y20440D2*
D10*
X4940D1*
X5940Y18440D2*
Y20440D1*
Y18440D2*
X4940D1*
Y20440D1*
X8241Y13840D2*
X9639D1*
X8241Y15040D2*
X9639D1*
Y13840D2*
G03X9639Y15040I1J600D01*
G01*
X8241D2*
G03X8241Y13840I-1J-600D01*
G01*
X7877Y14322D2*
Y14558D1*
X7759Y14440D2*
X7995D1*
X8241Y17840D2*
X9639D1*
X8241Y19040D2*
X9639D1*
Y17840D2*
G03X9639Y19040I1J600D01*
G01*
X8241D2*
G03X8241Y17840I-1J-600D01*
G01*
X7877Y18322D2*
Y18558D1*
X7759Y18440D2*
X7995D1*
X16240Y18241D2*
X15640D1*
X16240Y16639D2*
Y18241D1*
Y16639D2*
X15640D1*
Y18241D1*
Y12639D2*
X16240D1*
X15640Y14241D2*
Y12639D1*
Y14241D2*
X16240D1*
Y12639D1*
X15640Y8639D2*
X16240D1*
X15640Y10241D2*
Y8639D1*
Y10241D2*
X16240D1*
Y8639D1*
X8139Y8240D2*
Y7640D1*
X9741Y8240D2*
X8139D1*
X9741D2*
Y7640D1*
X8139D1*
X9741Y10640D2*
Y11240D1*
X8139Y10640D2*
X9741D1*
X8139D2*
Y11240D1*
X9741D1*
Y9140D2*
Y9740D1*
X8139Y9140D2*
X9741D1*
X8139D2*
Y9740D1*
X9741D1*
X8139Y12740D2*
Y12140D1*
X9741Y12740D2*
X8139D1*
X9741D2*
Y12140D1*
X8139D1*
X13960Y18558D2*
Y8322D1*
X11912D2*
X13960D1*
X11912Y18558D2*
Y8322D1*
Y18558D2*
X12700D1*
X13960D2*
X13172D1*
X12700D2*
G03X13172Y18558I236J1D01*
G01*
X8940Y20440D2*
X14940D1*
X8940Y21440D2*
X14940D1*
X8940Y20440D2*
Y21440D1*
X14940Y20440D2*
Y21440D1*
X21440Y17440D2*
X22440D1*
X21440Y19440D2*
Y17440D1*
Y19440D2*
X22440D1*
Y17440D1*
X21440Y12440D2*
X22440D1*
X21440Y14440D2*
Y12440D1*
Y14440D2*
X22440D1*
Y12440D1*
X21440Y7440D2*
X22440D1*
X21440Y9440D2*
Y7440D1*
Y9440D2*
X22440D1*
Y7440D1*
X5940Y16940D2*
X4940D1*
X5940Y6940D2*
Y16940D1*
Y6940D2*
X4940D1*
Y7690D1*
Y16940D1*
X17416Y17090D2*
X19464D1*
X17416Y20790D2*
Y17090D1*
X19464Y20790D2*
Y17090D1*
X17416Y20790D2*
X18204D1*
X19464D2*
X18676D1*
X18204D2*
G03X18676Y20790I236J0D01*
G01*
X17416Y12090D2*
X19464D1*
X17416Y15790D2*
Y12090D1*
X19464Y15790D2*
Y12090D1*
X17416Y15790D2*
X18204D1*
X19464D2*
X18676D1*
X18204D2*
G03X18676Y15790I236J0D01*
G01*
X17416Y7090D2*
X19464D1*
X17416Y10790D2*
Y7090D1*
X19464Y10790D2*
Y7090D1*
X17416Y10790D2*
X18204D1*
X19464D2*
X18676D1*
X18204D2*
G03X18676Y10790I236J0D01*
G01*
X9790Y15890D2*
Y16990D1*
X6540Y16940D2*
G02X6640Y17040I100J0D01*
G01*
Y15840D2*
G02X6540Y15940I0J100D01*
G01*
Y16940D1*
X9790Y16990D2*
X9640D1*
Y17040D2*
Y16990D1*
Y17040D2*
X6640D1*
X9790Y15890D2*
X9640D1*
Y15840D2*
Y15890D1*
Y15840D2*
X6640D1*
X9640Y16990D2*
Y15890D1*
G36*
X10040Y16560D2*
X9810D1*
Y16720D1*
X10040D1*
Y16560D1*
G37*
G36*
Y16160D2*
X9810D1*
Y16320D1*
X10040D1*
Y16160D1*
G37*
X10145Y16637D2*
D10*
X9990Y16640D1*
X10140Y16240D2*
X10040D1*
X10145Y16637D2*
X10204Y16676D1*
Y16204D2*
X10145Y16243D1*
X8240Y16140D2*
X8390D1*
Y16740D2*
Y16140D1*
Y16740D2*
X8240D1*
Y16140D2*
Y16740D1*
X8090Y16140D2*
Y16440D1*
X8540Y16140D2*
Y16440D1*
X8740D1*
X8540D2*
Y16740D1*
X8090Y16440D2*
X7890D1*
X8090D2*
Y16740D1*
G36*
X9940Y22273D2*
X9440Y21773D1*
X8940Y22273D1*
X9940D1*
G37*
G36*
X4440Y7440D2*
X3940Y7940D1*
Y6940D1*
X4440Y7440D1*
G37*
X4208Y18891D2*
D47*
X4710D1*
D2*
Y19106D1*
D2*
X4686Y19178D1*
D2*
X4662Y19202D1*
D2*
X4615Y19226D1*
D2*
X4543D1*
D2*
X4495Y19202D1*
D2*
X4471Y19178D1*
D2*
X4447Y19106D1*
D2*
X4423Y19178D1*
D2*
X4399Y19202D1*
D2*
X4351Y19226D1*
D2*
X4303D1*
D2*
X4256Y19202D1*
D2*
X4232Y19178D1*
D2*
X4208Y19106D1*
D2*
Y18891D1*
X4447D2*
Y19106D1*
X4208Y19547D2*
X4710D1*
X4208Y19380D2*
Y19715D1*
X4304Y19869D2*
X4280Y19917D1*
D2*
X4208Y19989D1*
D2*
X4710D1*
X8982Y15653D2*
X8958Y15700D1*
D2*
X8910Y15748D1*
D2*
X8863Y15772D1*
D2*
X8767D1*
D2*
X8719Y15748D1*
D2*
X8672Y15700D1*
D2*
X8647Y15653D1*
D2*
X8623Y15581D1*
D2*
Y15461D1*
D2*
X8647Y15390D1*
D2*
X8672Y15342D1*
D2*
X8719Y15294D1*
D2*
X8767Y15270D1*
D2*
X8863D1*
D2*
X8910Y15294D1*
D2*
X8958Y15342D1*
D2*
X8982Y15390D1*
X9137Y15676D2*
X9185Y15700D1*
D2*
X9257Y15772D1*
D2*
Y15270D1*
X8875Y19653D2*
X8851Y19700D1*
D2*
X8803Y19748D1*
D2*
X8755Y19772D1*
D2*
X8660D1*
D2*
X8612Y19748D1*
D2*
X8564Y19700D1*
D2*
X8540Y19653D1*
D2*
X8516Y19581D1*
D2*
Y19461D1*
D2*
X8540Y19390D1*
D2*
X8564Y19342D1*
D2*
X8612Y19294D1*
D2*
X8660Y19270D1*
D2*
X8755D1*
D2*
X8803Y19294D1*
D2*
X8851Y19342D1*
D2*
X8875Y19390D1*
X9053Y19652D2*
Y19676D1*
D2*
X9077Y19724D1*
D2*
X9101Y19748D1*
D2*
X9149Y19772D1*
D2*
X9245D1*
D2*
X9292Y19748D1*
D2*
X9316Y19724D1*
D2*
X9340Y19676D1*
D2*
Y19629D1*
D2*
X9316Y19580D1*
D2*
X9268Y19509D1*
D2*
X9029Y19270D1*
D2*
X9364D1*
X15147Y17135D2*
Y17350D1*
D2*
X15123Y17422D1*
D2*
X15099Y17447D1*
D2*
X15051Y17470D1*
D2*
X15003D1*
D2*
X14956Y17447D1*
D2*
X14932Y17422D1*
D2*
X14908Y17350D1*
D2*
Y17135D1*
D2*
X15410D1*
X15147Y17303D2*
X15410Y17470D1*
X15004Y17625D2*
X14980Y17673D1*
D2*
X14908Y17745D1*
D2*
X15410D1*
X15147Y13028D2*
Y13243D1*
D2*
X15123Y13315D1*
D2*
X15099Y13339D1*
D2*
X15051Y13363D1*
D2*
X15003D1*
D2*
X14956Y13339D1*
D2*
X14932Y13315D1*
D2*
X14908Y13243D1*
D2*
Y13028D1*
D2*
X15410D1*
X15147Y13195D2*
X15410Y13363D1*
X15028Y13542D2*
X15004D1*
D2*
X14956Y13565D1*
D2*
X14932Y13589D1*
D2*
X14908Y13637D1*
D2*
Y13733D1*
D2*
X14932Y13780D1*
D2*
X14956Y13804D1*
D2*
X15004Y13828D1*
D2*
X15051D1*
D2*
X15100Y13804D1*
D2*
X15171Y13757D1*
D2*
X15410Y13517D1*
D2*
Y13852D1*
X15147Y9028D2*
Y9243D1*
D2*
X15123Y9315D1*
D2*
X15099Y9339D1*
D2*
X15051Y9363D1*
D2*
X15003D1*
D2*
X14956Y9339D1*
D2*
X14932Y9315D1*
D2*
X14908Y9243D1*
D2*
Y9028D1*
D2*
X15410D1*
X15147Y9195D2*
X15410Y9363D1*
X14908Y9565D2*
Y9828D1*
D2*
X15100Y9685D1*
D2*
Y9757D1*
D2*
X15123Y9804D1*
D2*
X15147Y9828D1*
D2*
X15219Y9852D1*
D2*
X15266D1*
D2*
X15338Y9828D1*
D2*
X15386Y9780D1*
D2*
X15410Y9708D1*
D2*
Y9637D1*
D2*
X15386Y9565D1*
D2*
X15362Y9542D1*
D2*
X15315Y9517D1*
X8516Y8733D2*
X8731D1*
D2*
X8803Y8757D1*
D2*
X8827Y8781D1*
D2*
X8851Y8829D1*
D2*
Y8877D1*
D2*
X8827Y8924D1*
D2*
X8803Y8948D1*
D2*
X8731Y8972D1*
D2*
X8516D1*
D2*
Y8470D1*
X8683Y8733D2*
X8851Y8470D1*
X9245D2*
Y8972D1*
D2*
X9005Y8637D1*
D2*
X9364D1*
X8528Y11733D2*
X8743D1*
D2*
X8815Y11757D1*
D2*
X8839Y11781D1*
D2*
X8863Y11829D1*
D2*
Y11877D1*
D2*
X8839Y11924D1*
D2*
X8815Y11948D1*
D2*
X8743Y11972D1*
D2*
X8528D1*
D2*
Y11470D1*
X8695Y11733D2*
X8863Y11470D1*
X9304Y11972D2*
X9065D1*
D2*
X9042Y11757D1*
D2*
X9065Y11780D1*
D2*
X9137Y11805D1*
D2*
X9208D1*
D2*
X9280Y11780D1*
D2*
X9328Y11733D1*
D2*
X9352Y11661D1*
D2*
Y11614D1*
D2*
X9328Y11542D1*
D2*
X9280Y11494D1*
D2*
X9208Y11470D1*
D2*
X9137D1*
D2*
X9065Y11494D1*
D2*
X9042Y11518D1*
D2*
X9017Y11565D1*
X8540Y10233D2*
X8755D1*
D2*
X8827Y10257D1*
D2*
X8851Y10281D1*
D2*
X8875Y10329D1*
D2*
Y10377D1*
D2*
X8851Y10424D1*
D2*
X8827Y10448D1*
D2*
X8755Y10472D1*
D2*
X8540D1*
D2*
Y9970D1*
X8707Y10233D2*
X8875Y9970D1*
X9316Y10400D2*
X9292Y10448D1*
D2*
X9221Y10472D1*
D2*
X9173D1*
D2*
X9101Y10448D1*
D2*
X9053Y10376D1*
D2*
X9029Y10257D1*
D2*
Y10137D1*
D2*
X9053Y10042D1*
D2*
X9101Y9994D1*
D2*
X9173Y9970D1*
D2*
X9197D1*
D2*
X9268Y9994D1*
D2*
X9316Y10042D1*
D2*
X9340Y10114D1*
D2*
Y10137D1*
D2*
X9316Y10209D1*
D2*
X9268Y10257D1*
D2*
X9197Y10280D1*
D2*
X9173D1*
D2*
X9101Y10257D1*
D2*
X9053Y10209D1*
D2*
X9029Y10137D1*
X8528Y13233D2*
X8743D1*
D2*
X8815Y13257D1*
D2*
X8839Y13281D1*
D2*
X8863Y13329D1*
D2*
Y13377D1*
D2*
X8839Y13424D1*
D2*
X8815Y13448D1*
D2*
X8743Y13472D1*
D2*
X8528D1*
D2*
Y12970D1*
X8695Y13233D2*
X8863Y12970D1*
X9113D2*
X9352Y13472D1*
D2*
X9017D1*
X9759Y7228D2*
X9974D1*
D2*
X10046Y7253D1*
D2*
X10071Y7276D1*
D2*
X10094Y7324D1*
D2*
Y7372D1*
D2*
X10071Y7419D1*
D2*
X10046Y7444D1*
D2*
X9974Y7468D1*
D2*
X9759D1*
D2*
Y6965D1*
X9927Y7228D2*
X10094Y6965D1*
X10607Y7348D2*
X10584Y7396D1*
D2*
X10536Y7444D1*
D2*
X10488Y7468D1*
D2*
X10392D1*
D2*
X10344Y7444D1*
D2*
X10297Y7396D1*
D2*
X10273Y7348D1*
D2*
X10249Y7276D1*
D2*
Y7156D1*
D2*
X10273Y7085D1*
D2*
X10297Y7037D1*
D2*
X10344Y6989D1*
D2*
X10392Y6965D1*
D2*
X10488D1*
D2*
X10536Y6989D1*
D2*
X10584Y7037D1*
D2*
X10607Y7085D1*
X11001Y6965D2*
Y7467D1*
D2*
X10762Y7133D1*
D2*
X11121D1*
X11771Y7228D2*
X11986D1*
D2*
X12058Y7253D1*
D2*
X12082Y7276D1*
D2*
X12106Y7324D1*
D2*
Y7372D1*
D2*
X12082Y7419D1*
D2*
X12058Y7444D1*
D2*
X11986Y7468D1*
D2*
X11771D1*
D2*
Y6965D1*
X11939Y7228D2*
X12106Y6965D1*
X12619Y7348D2*
X12596Y7396D1*
D2*
X12547Y7444D1*
D2*
X12500Y7468D1*
D2*
X12404D1*
D2*
X12356Y7444D1*
D2*
X12309Y7396D1*
D2*
X12284Y7348D1*
D2*
X12261Y7276D1*
D2*
Y7156D1*
D2*
X12284Y7085D1*
D2*
X12309Y7037D1*
D2*
X12356Y6989D1*
D2*
X12404Y6965D1*
D2*
X12500D1*
D2*
X12547Y6989D1*
D2*
X12596Y7037D1*
D2*
X12619Y7085D1*
X13061Y7467D2*
X12822D1*
D2*
X12798Y7252D1*
D2*
X12822Y7276D1*
D2*
X12894Y7300D1*
D2*
X12965D1*
D2*
X13037Y7276D1*
D2*
X13085Y7228D1*
D2*
X13109Y7156D1*
D2*
Y7109D1*
D2*
X13085Y7037D1*
D2*
X13037Y6989D1*
D2*
X12965Y6965D1*
D2*
X12894D1*
D2*
X12822Y6989D1*
D2*
X12798Y7013D1*
D2*
X12774Y7061D1*
X14130Y7348D2*
X14106Y7396D1*
D2*
X14058Y7444D1*
D2*
X14011Y7468D1*
D2*
X13915D1*
D2*
X13867Y7444D1*
D2*
X13819Y7396D1*
D2*
X13795Y7348D1*
D2*
X13771Y7276D1*
D2*
Y7156D1*
D2*
X13795Y7085D1*
D2*
X13819Y7037D1*
D2*
X13867Y6989D1*
D2*
X13915Y6965D1*
D2*
X14011D1*
D2*
X14058Y6989D1*
D2*
X14106Y7037D1*
D2*
X14130Y7085D1*
D2*
Y7156D1*
D2*
X14011D1*
X14619Y7468D2*
Y6965D1*
D2*
X14284Y7468D1*
D2*
Y6965D1*
X14774Y7468D2*
Y6965D1*
D2*
X14941D1*
D2*
X15013Y6989D1*
D2*
X15061Y7037D1*
D2*
X15085Y7085D1*
D2*
X15109Y7156D1*
D2*
Y7276D1*
D2*
X15085Y7348D1*
D2*
X15061Y7396D1*
D2*
X15013Y7444D1*
D2*
X14941Y7468D1*
D2*
X14774D1*
X12631Y19290D2*
Y18932D1*
D2*
X12655Y18860D1*
D2*
X12703Y18812D1*
D2*
X12775Y18788D1*
D2*
X12823D1*
D2*
X12895Y18812D1*
D2*
X12943Y18860D1*
D2*
X12966Y18932D1*
D2*
Y19290D1*
X13121Y19194D2*
X13169Y19218D1*
D2*
X13241Y19290D1*
D2*
Y18788D1*
X11528Y22172D2*
Y21814D1*
D2*
X11552Y21742D1*
D2*
X11600Y21694D1*
D2*
X11672Y21670D1*
D2*
X11719D1*
D2*
X11791Y21694D1*
D2*
X11839Y21742D1*
D2*
X11863Y21814D1*
D2*
Y22172D1*
X12042Y22052D2*
Y22076D1*
D2*
X12065Y22124D1*
D2*
X12089Y22148D1*
D2*
X12137Y22172D1*
D2*
X12233D1*
D2*
X12280Y22148D1*
D2*
X12304Y22124D1*
D2*
X12328Y22076D1*
D2*
Y22029D1*
D2*
X12304Y21980D1*
D2*
X12257Y21909D1*
D2*
X12017Y21670D1*
D2*
X12352D1*
X20708Y18028D2*
X21066D1*
D2*
X21138Y18052D1*
D2*
X21186Y18100D1*
D2*
X21210Y18172D1*
D2*
Y18219D1*
D2*
X21186Y18291D1*
D2*
X21138Y18339D1*
D2*
X21066Y18363D1*
D2*
X20708D1*
Y18565D2*
Y18828D1*
D2*
X20900Y18685D1*
D2*
Y18757D1*
D2*
X20923Y18804D1*
D2*
X20947Y18828D1*
D2*
X21019Y18852D1*
D2*
X21066D1*
D2*
X21138Y18828D1*
D2*
X21186Y18780D1*
D2*
X21210Y18708D1*
D2*
Y18637D1*
D2*
X21186Y18565D1*
D2*
X21162Y18542D1*
D2*
X21115Y18517D1*
X20708Y13016D2*
X21066D1*
D2*
X21138Y13040D1*
D2*
X21186Y13088D1*
D2*
X21210Y13160D1*
D2*
Y13207D1*
D2*
X21186Y13279D1*
D2*
X21138Y13327D1*
D2*
X21066Y13351D1*
D2*
X20708D1*
X21210Y13745D2*
X20708D1*
D2*
X21043Y13505D1*
D2*
Y13864D1*
X20708Y8028D2*
X21066D1*
D2*
X21138Y8052D1*
D2*
X21186Y8100D1*
D2*
X21210Y8172D1*
D2*
Y8219D1*
D2*
X21186Y8291D1*
D2*
X21138Y8339D1*
D2*
X21066Y8363D1*
D2*
X20708D1*
Y8804D2*
Y8565D1*
D2*
X20923Y8542D1*
D2*
X20900Y8565D1*
D2*
X20875Y8637D1*
D2*
Y8708D1*
D2*
X20900Y8780D1*
D2*
X20947Y8828D1*
D2*
X21019Y8852D1*
D2*
X21066D1*
D2*
X21138Y8828D1*
D2*
X21186Y8780D1*
D2*
X21210Y8708D1*
D2*
Y8637D1*
D2*
X21186Y8565D1*
D2*
X21162Y8542D1*
D2*
X21115Y8517D1*
X4208Y11540D2*
X4566D1*
D2*
X4638Y11564D1*
D2*
X4686Y11612D1*
D2*
X4710Y11684D1*
D2*
Y11731D1*
D2*
X4686Y11803D1*
D2*
X4638Y11851D1*
D2*
X4566Y11875D1*
D2*
X4208D1*
X4280Y12316D2*
X4232Y12292D1*
D2*
X4208Y12221D1*
D2*
Y12173D1*
D2*
X4232Y12101D1*
D2*
X4304Y12053D1*
D2*
X4423Y12029D1*
D2*
X4543D1*
D2*
X4638Y12053D1*
D2*
X4686Y12101D1*
D2*
X4710Y12173D1*
D2*
Y12197D1*
D2*
X4686Y12268D1*
D2*
X4638Y12316D1*
D2*
X4566Y12340D1*
D2*
X4543D1*
D2*
X4471Y12316D1*
D2*
X4423Y12268D1*
D2*
X4400Y12197D1*
D2*
Y12173D1*
D2*
X4423Y12101D1*
D2*
X4471Y12053D1*
D2*
X4543Y12029D1*
X17843Y21523D2*
X18034Y21020D1*
D2*
X18226Y21523D1*
X18524D2*
X18476Y21499D1*
D2*
X18428Y21451D1*
D2*
X18404Y21403D1*
D2*
X18380Y21331D1*
D2*
Y21211D1*
D2*
X18404Y21140D1*
D2*
X18428Y21092D1*
D2*
X18476Y21045D1*
D2*
X18524Y21020D1*
D2*
X18619D1*
D2*
X18667Y21045D1*
D2*
X18715Y21092D1*
D2*
X18739Y21140D1*
D2*
X18762Y21211D1*
D2*
Y21331D1*
D2*
X18739Y21403D1*
D2*
X18715Y21451D1*
D2*
X18667Y21499D1*
D2*
X18619Y21523D1*
D2*
X18524D1*
X18917Y21426D2*
X18965Y21451D1*
D2*
X19037Y21522D1*
D2*
Y21020D1*
X17736Y16523D2*
X17927Y16020D1*
D2*
X18118Y16523D1*
X18416D2*
X18368Y16499D1*
D2*
X18321Y16451D1*
D2*
X18296Y16403D1*
D2*
X18273Y16331D1*
D2*
Y16211D1*
D2*
X18296Y16140D1*
D2*
X18321Y16092D1*
D2*
X18368Y16045D1*
D2*
X18416Y16020D1*
D2*
X18512D1*
D2*
X18559Y16045D1*
D2*
X18607Y16092D1*
D2*
X18631Y16140D1*
D2*
X18655Y16211D1*
D2*
Y16331D1*
D2*
X18631Y16403D1*
D2*
X18607Y16451D1*
D2*
X18559Y16499D1*
D2*
X18512Y16523D1*
D2*
X18416D1*
X18834Y16403D2*
Y16426D1*
D2*
X18857Y16475D1*
D2*
X18881Y16498D1*
D2*
X18929Y16522D1*
D2*
X19025D1*
D2*
X19072Y16498D1*
D2*
X19096Y16475D1*
D2*
X19121Y16426D1*
D2*
Y16379D1*
D2*
X19096Y16331D1*
D2*
X19049Y16260D1*
D2*
X18809Y16020D1*
D2*
X19144D1*
X17736Y11523D2*
X17927Y11020D1*
D2*
X18118Y11523D1*
X18416D2*
X18368Y11499D1*
D2*
X18321Y11451D1*
D2*
X18296Y11403D1*
D2*
X18273Y11331D1*
D2*
Y11211D1*
D2*
X18296Y11140D1*
D2*
X18321Y11092D1*
D2*
X18368Y11045D1*
D2*
X18416Y11020D1*
D2*
X18512D1*
D2*
X18559Y11045D1*
D2*
X18607Y11092D1*
D2*
X18631Y11140D1*
D2*
X18655Y11211D1*
D2*
Y11331D1*
D2*
X18631Y11403D1*
D2*
X18607Y11451D1*
D2*
X18559Y11499D1*
D2*
X18512Y11523D1*
D2*
X18416D1*
X18857Y11522D2*
X19120D1*
D2*
X18977Y11331D1*
D2*
X19049D1*
D2*
X19096Y11307D1*
D2*
X19120Y11283D1*
D2*
X19144Y11211D1*
D2*
Y11164D1*
D2*
X19120Y11092D1*
D2*
X19072Y11044D1*
D2*
X19001Y11020D1*
D2*
X18929D1*
D2*
X18857Y11044D1*
D2*
X18834Y11068D1*
D2*
X18809Y11116D1*
X8305Y17912D2*
X8640Y17410D1*
Y17912D2*
X8305Y17410D1*
X8795Y17816D2*
X8843Y17840D1*
D2*
X8915Y17912D1*
D2*
Y17410D1*
X6398Y19289D2*
D48*
Y18600D1*
X6054Y18944D2*
X6743D1*
X21971Y20385D2*
Y19696D1*
X21627Y20040D2*
X22315D1*
X21940Y15480D2*
Y14791D1*
X21596Y15135D2*
X22285D1*
X21940Y10564D2*
Y9875D1*
X21596Y10219D2*
X22285D1*
X8945Y4211D2*
D49*
Y4814D1*
D2*
X8716Y4211D1*
D2*
X8486Y4814D1*
D2*
Y4211D1*
X10001Y4814D2*
Y4355D1*
D2*
X9972Y4269D1*
D2*
X9943Y4240D1*
D2*
X9886Y4211D1*
D2*
X9828D1*
D2*
X9771Y4240D1*
D2*
X9743Y4269D1*
D2*
X9714Y4355D1*
D2*
Y4412D1*
X10942Y4814D2*
X10884Y4785D1*
D2*
X10827Y4727D1*
D2*
X10798Y4670D1*
D2*
X10769Y4584D1*
D2*
Y4440D1*
D2*
X10798Y4355D1*
D2*
X10827Y4297D1*
D2*
X10884Y4240D1*
D2*
X10942Y4211D1*
D2*
X11057D1*
D2*
X11114Y4240D1*
D2*
X11171Y4297D1*
D2*
X11200Y4355D1*
D2*
X11228Y4440D1*
D2*
Y4584D1*
D2*
X11200Y4670D1*
D2*
X11171Y4727D1*
D2*
X11114Y4785D1*
D2*
X11057Y4814D1*
D2*
X10942D1*
X11414D2*
Y4211D1*
X11943Y4814D2*
Y4211D1*
Y4527D2*
X11886Y4584D1*
D2*
X11828Y4613D1*
D2*
X11742D1*
D2*
X11685Y4584D1*
D2*
X11627Y4527D1*
D2*
X11599Y4440D1*
D2*
Y4383D1*
D2*
X11627Y4297D1*
D2*
X11685Y4240D1*
D2*
X11742Y4211D1*
D2*
X11828D1*
D2*
X11886Y4240D1*
D2*
X11943Y4297D1*
X12358Y4814D2*
X12301D1*
D2*
X12243Y4785D1*
D2*
X12215Y4699D1*
D2*
Y4211D1*
X12128Y4613D2*
X12329D1*
X12543Y4814D2*
X12572Y4785D1*
D2*
X12601Y4814D1*
D2*
X12572Y4843D1*
D2*
X12543Y4814D1*
X12572Y4613D2*
Y4211D1*
X12786Y4440D2*
X13130D1*
D2*
Y4498D1*
D2*
X13102Y4556D1*
D2*
X13073Y4584D1*
D2*
X13016Y4613D1*
D2*
X12929D1*
D2*
X12872Y4584D1*
D2*
X12815Y4527D1*
D2*
X12786Y4440D1*
D2*
Y4383D1*
D2*
X12815Y4297D1*
D2*
X12872Y4240D1*
D2*
X12929Y4211D1*
D2*
X13016D1*
D2*
X13073Y4240D1*
D2*
X13130Y4297D1*
X13316Y4814D2*
Y4211D1*
X13845Y4814D2*
Y4211D1*
Y4527D2*
X13788Y4584D1*
D2*
X13730Y4613D1*
D2*
X13644D1*
D2*
X13587Y4584D1*
D2*
X13529Y4527D1*
D2*
X13501Y4440D1*
D2*
Y4383D1*
D2*
X13529Y4297D1*
D2*
X13587Y4240D1*
D2*
X13644Y4211D1*
D2*
X13730D1*
D2*
X13788Y4240D1*
D2*
X13845Y4297D1*
X14088Y4239D2*
X14059Y4211D1*
D2*
X14030Y4239D1*
D2*
X14059Y4269D1*
D2*
X14088Y4239D1*
D2*
Y4182D1*
D2*
X14059Y4125D1*
D2*
X14030Y4096D1*
X14857Y4613D2*
Y4211D1*
Y4498D2*
X14943Y4584D1*
D2*
X15000Y4613D1*
D2*
X15086D1*
D2*
X15144Y4584D1*
D2*
X15172Y4498D1*
D2*
Y4211D1*
Y4498D2*
X15258Y4584D1*
D2*
X15316Y4613D1*
D2*
X15402D1*
D2*
X15459Y4584D1*
D2*
X15489Y4498D1*
D2*
Y4211D1*
X15990Y4670D2*
X15903D1*
D2*
X15846Y4641D1*
D2*
X15817Y4613D1*
D2*
X15789Y4555D1*
D2*
Y4440D1*
D2*
X15817Y4412D1*
D2*
X15875D1*
D2*
X15990Y4440D1*
D2*
X16018Y4383D1*
D2*
X16047D1*
D2*
X16104Y4440D1*
D2*
X16133Y4584D1*
D2*
X16104Y4670D1*
D2*
X16076Y4727D1*
D2*
X16018Y4785D1*
D2*
X15961Y4813D1*
D2*
X15846D1*
D2*
X15789Y4785D1*
D2*
X15732Y4727D1*
D2*
X15702Y4670D1*
D2*
X15674Y4584D1*
D2*
Y4440D1*
D2*
X15702Y4354D1*
D2*
X15732Y4297D1*
D2*
X15789Y4239D1*
D2*
X15846Y4211D1*
D2*
X15961D1*
D2*
X16018Y4239D1*
D2*
X16076Y4297D1*
X15990Y4698D2*
Y4440D1*
X16318Y4613D2*
Y4211D1*
Y4498D2*
X16404Y4584D1*
D2*
X16462Y4613D1*
D2*
X16548D1*
D2*
X16605Y4584D1*
D2*
X16634Y4498D1*
D2*
Y4211D1*
Y4498D2*
X16720Y4584D1*
D2*
X16778Y4613D1*
D2*
X16863D1*
D2*
X16921Y4584D1*
D2*
X16950Y4498D1*
D2*
Y4211D1*
X17250Y4814D2*
X17279Y4786D1*
D2*
X17308Y4814D1*
D2*
X17279Y4843D1*
D2*
X17250Y4814D1*
X17279Y4613D2*
Y4125D1*
D2*
X17250Y4039D1*
D2*
X17193Y4011D1*
D2*
X17135D1*
X17636Y4613D2*
X17579Y4584D1*
D2*
X17522Y4527D1*
D2*
X17493Y4440D1*
D2*
Y4383D1*
D2*
X17522Y4297D1*
D2*
X17579Y4240D1*
D2*
X17636Y4211D1*
D2*
X17723D1*
D2*
X17780Y4240D1*
D2*
X17837Y4297D1*
D2*
X17867Y4383D1*
D2*
Y4440D1*
D2*
X17837Y4527D1*
D2*
X17780Y4584D1*
D2*
X17723Y4613D1*
D2*
X17636D1*
X18080Y4269D2*
X18052Y4239D1*
D2*
X18080Y4211D1*
D2*
X18110Y4239D1*
D2*
X18080Y4269D1*
X18381Y4814D2*
Y4326D1*
D2*
X18410Y4240D1*
D2*
X18467Y4211D1*
D2*
X18524D1*
X18295Y4613D2*
X18496D1*
X19054Y4527D2*
X18997Y4584D1*
D2*
X18939Y4613D1*
D2*
X18853D1*
D2*
X18796Y4584D1*
D2*
X18739Y4527D1*
D2*
X18710Y4440D1*
D2*
Y4383D1*
D2*
X18739Y4297D1*
D2*
X18796Y4240D1*
D2*
X18853Y4211D1*
D2*
X18939D1*
D2*
X18997Y4240D1*
D2*
X19054Y4297D1*
X8486Y5814D2*
Y5211D1*
X8672Y5613D2*
Y5211D1*
Y5498D2*
X8758Y5584D1*
D2*
X8816Y5613D1*
D2*
X8901D1*
D2*
X8959Y5584D1*
D2*
X8987Y5498D1*
D2*
Y5211D1*
X9259Y5814D2*
Y5326D1*
D2*
X9287Y5240D1*
D2*
X9345Y5211D1*
D2*
X9402D1*
X9173Y5613D2*
X9374D1*
X9587Y5440D2*
X9932D1*
D2*
Y5498D1*
D2*
X9903Y5556D1*
D2*
X9874Y5584D1*
D2*
X9817Y5613D1*
D2*
X9731D1*
D2*
X9674Y5584D1*
D2*
X9616Y5527D1*
D2*
X9587Y5440D1*
D2*
Y5383D1*
D2*
X9616Y5297D1*
D2*
X9674Y5240D1*
D2*
X9731Y5211D1*
D2*
X9817D1*
D2*
X9874Y5240D1*
D2*
X9932Y5297D1*
X10117Y5613D2*
Y5211D1*
Y5440D2*
X10146Y5527D1*
D2*
X10203Y5584D1*
D2*
X10261Y5613D1*
D2*
X10347D1*
X10532D2*
X10705Y5211D1*
D2*
X10876Y5613D1*
X11406D2*
Y5211D1*
Y5527D2*
X11349Y5584D1*
D2*
X11291Y5613D1*
D2*
X11206D1*
D2*
X11148Y5584D1*
D2*
X11091Y5527D1*
D2*
X11062Y5440D1*
D2*
Y5383D1*
D2*
X11091Y5297D1*
D2*
X11148Y5240D1*
D2*
X11206Y5211D1*
D2*
X11291D1*
D2*
X11349Y5240D1*
D2*
X11406Y5297D1*
X11591Y5814D2*
Y5211D1*
X11920Y5613D2*
X11863Y5584D1*
D2*
X11805Y5527D1*
D2*
X11776Y5440D1*
D2*
Y5383D1*
D2*
X11805Y5297D1*
D2*
X11863Y5240D1*
D2*
X11920Y5211D1*
D2*
X12006D1*
D2*
X12064Y5240D1*
D2*
X12121Y5297D1*
D2*
X12150Y5383D1*
D2*
Y5440D1*
D2*
X12121Y5527D1*
D2*
X12064Y5584D1*
D2*
X12006Y5613D1*
D2*
X11920D1*
X12335D2*
Y5211D1*
Y5498D2*
X12421Y5584D1*
D2*
X12479Y5613D1*
D2*
X12565D1*
D2*
X12622Y5584D1*
D2*
X12651Y5498D1*
D2*
Y5211D1*
Y5498D2*
X12737Y5584D1*
D2*
X12795Y5613D1*
D2*
X12880D1*
D2*
X12938Y5584D1*
D2*
X12967Y5498D1*
D2*
Y5211D1*
X13152Y5440D2*
X13497D1*
D2*
Y5498D1*
D2*
X13468Y5556D1*
D2*
X13440Y5584D1*
D2*
X13382Y5613D1*
D2*
X13296D1*
D2*
X13239Y5584D1*
D2*
X13181Y5527D1*
D2*
X13152Y5440D1*
D2*
Y5383D1*
D2*
X13181Y5297D1*
D2*
X13239Y5240D1*
D2*
X13296Y5211D1*
D2*
X13382D1*
D2*
X13440Y5240D1*
D2*
X13497Y5297D1*
X13768Y5814D2*
Y5326D1*
D2*
X13797Y5240D1*
D2*
X13854Y5211D1*
D2*
X13911D1*
X13682Y5613D2*
X13883D1*
X14097Y5440D2*
X14441D1*
D2*
Y5498D1*
D2*
X14412Y5556D1*
D2*
X14384Y5584D1*
D2*
X14326Y5613D1*
D2*
X14240D1*
D2*
X14183Y5584D1*
D2*
X14125Y5527D1*
D2*
X14097Y5440D1*
D2*
Y5383D1*
D2*
X14125Y5297D1*
D2*
X14183Y5240D1*
D2*
X14240Y5211D1*
D2*
X14326D1*
D2*
X14384Y5240D1*
D2*
X14441Y5297D1*
X14626Y5613D2*
Y5211D1*
Y5440D2*
X14655Y5527D1*
D2*
X14712Y5584D1*
D2*
X14770Y5613D1*
D2*
X14856D1*
X15625Y5698D2*
X15683Y5727D1*
D2*
X15769Y5813D1*
D2*
Y5211D1*
X15983Y5269D2*
X15954Y5239D1*
D2*
X15983Y5211D1*
D2*
X16012Y5239D1*
D2*
X15983Y5269D1*
X16369Y5813D2*
X16283Y5785D1*
D2*
X16226Y5698D1*
D2*
X16197Y5555D1*
D2*
Y5469D1*
D2*
X16226Y5326D1*
D2*
X16283Y5239D1*
D2*
X16369Y5211D1*
D2*
X16426D1*
D2*
X16513Y5239D1*
D2*
X16570Y5326D1*
D2*
X16599Y5469D1*
D2*
Y5555D1*
D2*
X16570Y5698D1*
D2*
X16513Y5785D1*
D2*
X16426Y5813D1*
D2*
X16369D1*
X16570Y5698D2*
X16226Y5326D1*
M02*
