G04 DipTrace 2.1.9.2*
%INTop.gbr*%
%MOIN*%
%ADD10C,0.0098*%
%ADD11C,0.006*%
%ADD12C,0.003*%
%ADD13C,0.013*%
%ADD14R,0.0591X0.0591*%
%ADD15C,0.0591*%
%ADD16C,0.063*%
%ADD17R,0.063X0.063*%
%ADD18C,0.05*%
%ADD19C,0.05*%
%ADD20C,0.0591*%
%ADD21C,0.048*%
%ADD22C,0.04*%
%ADD23C,0.0191*%
%ADD24C,0.118*%
%ADD25C,0.0354*%
%ADD26C,0.0394*%
%ADD27C,0.022*%
%ADD28C,0.032*%
%ADD29C,0.008*%
%ADD30C,0.048*%
%ADD31C,0.056*%
%ADD32C,0.04*%
%ADD33C,0.0671*%
%ADD34C,0.0511*%
%ADD35C,0.058*%
%ADD36C,0.042*%
%ADD37C,0.058*%
%ADD38C,0.042*%
%ADD39R,0.071X0.071*%
%ADD40R,0.055X0.055*%
%ADD41C,0.071*%
%ADD42C,0.055*%
%ADD43C,0.0671*%
%ADD44C,0.0511*%
%ADD45R,0.0671X0.0671*%
%ADD46R,0.0511X0.0511*%
%ADD47C,0.0077*%
%ADD48C,0.0124*%
%ADD49C,0.0093*%
%FSLAX44Y44*%
%SFA1B1*%
%OFA0B0*%
G04*
G70*
G90*
G75*
G01*
%LNTop*%
%LPD*%
X11440Y16940D2*
D13*
X10440D1*
X10005Y17375D1*
X9505D1*
X8440Y18440D1*
X11440Y15940D2*
X10440D1*
Y15210D1*
X10180Y14950D1*
X8950D1*
X8440Y14440D1*
X11440Y20940D2*
X10930Y20430D1*
Y17430D1*
X13922D1*
X14432Y17940D1*
X14922Y18430D1*
X16430D1*
X16940Y18940D1*
X14432Y11940D2*
X15432Y10940D1*
X15940D1*
X5440Y7440D2*
X5940Y7940D1*
X7440D1*
X5440Y18940D2*
X5930Y19430D1*
X8930D1*
X10440Y20940D1*
Y10940D2*
X8145D1*
X7885Y11200D1*
Y11995D1*
X7440Y12440D1*
X19940Y17940D2*
X21940D1*
X19940Y18940D2*
X21242D1*
X21940D1*
X19940Y12940D2*
X21940D1*
X19940Y13940D2*
X21320D1*
X21940D1*
X19940Y7940D2*
X21940D1*
X19940Y8940D2*
X21190D1*
X21940D1*
X10440Y12440D2*
X9950Y12930D1*
X5210D1*
X4950Y13190D1*
Y13950D1*
X5440Y14440D1*
Y13930D1*
X10440D1*
X10940Y14430D1*
X13922D1*
X14432Y14940D1*
Y10940D2*
X11932Y13440D1*
X5440D1*
Y11440D2*
X4690Y10690D1*
Y9190D1*
X4950Y8930D1*
X8717D1*
X9262Y8385D1*
X13877D1*
X14432Y8940D1*
X5440Y10440D2*
X11930D1*
X12190Y10180D1*
Y9690D1*
X11440Y8940D1*
X5440Y9440D2*
X7440D1*
X7940Y9940D1*
X11440D1*
X8837Y11430D2*
X10950D1*
X11440Y10940D1*
D22*
X8837Y11430D3*
D14*
X5440Y18940D3*
D15*
Y19940D3*
D16*
X9440Y14440D3*
D17*
X8440D3*
D16*
X9440Y18440D3*
D17*
X8440D3*
D18*
X15940Y18940D3*
D19*
Y15940D3*
D18*
Y11940D3*
D19*
Y14940D3*
D18*
Y7940D3*
D19*
Y10940D3*
D18*
X7440Y7940D3*
D19*
X10440D3*
D18*
Y10940D3*
D19*
X7440D3*
D18*
X10440Y9440D3*
D19*
X7440D3*
D18*
Y12440D3*
D19*
X10440D3*
D20*
Y6440D3*
X12440D3*
X14440D3*
D14*
X11440Y17940D3*
D15*
Y16940D3*
Y15940D3*
Y14940D3*
Y13940D3*
Y12940D3*
Y11940D3*
Y10940D3*
Y9940D3*
Y8940D3*
X14432Y17940D3*
Y16940D3*
Y15940D3*
Y14940D3*
Y13940D3*
Y12940D3*
Y11940D3*
Y10940D3*
Y9940D3*
Y8940D3*
D14*
X9440Y20940D3*
D15*
X10440D3*
X11440D3*
X12440D3*
X13440D3*
X14440D3*
D14*
X21940Y18940D3*
D15*
Y17940D3*
D14*
Y13940D3*
D15*
Y12940D3*
D14*
Y8940D3*
D15*
Y7940D3*
D14*
X5440Y7440D3*
D15*
Y8440D3*
Y9440D3*
Y10440D3*
Y11440D3*
Y12440D3*
Y13440D3*
Y14440D3*
Y15440D3*
Y16440D3*
D14*
X16940Y19940D3*
D15*
Y18940D3*
Y17940D3*
X19940D3*
Y18940D3*
Y19940D3*
D14*
X16940Y14940D3*
D15*
Y13940D3*
Y12940D3*
X19940D3*
Y13940D3*
Y14940D3*
D14*
X16940Y9940D3*
D15*
Y8940D3*
Y7940D3*
X19940D3*
Y8940D3*
Y9940D3*
D21*
X10440Y15940D3*
Y16940D3*
G36*
X6440D2*
X9440D1*
Y15940D1*
X6440D1*
Y16940D1*
G37*
%LNBoardOutline*%
X3940Y22940D2*
D11*
X22940D1*
Y22440D1*
Y22940D1*
Y3940D1*
X3940D1*
Y22940D1*
M02*
