G04 DipTrace 2.1.9.2*
%INTopMask.gbr*%
%MOIN*%
%ADD10C,0.0098*%
%ADD11C,0.006*%
%ADD12C,0.003*%
%ADD13C,0.013*%
%ADD14R,0.0591X0.0591*%
%ADD15C,0.0591*%
%ADD16C,0.063*%
%ADD17R,0.063X0.063*%
%ADD18C,0.05*%
%ADD19C,0.05*%
%ADD20C,0.0591*%
%ADD21C,0.048*%
%ADD22C,0.04*%
%ADD23C,0.0191*%
%ADD24C,0.118*%
%ADD25C,0.0354*%
%ADD26C,0.0394*%
%ADD27C,0.022*%
%ADD28C,0.032*%
%ADD29C,0.008*%
%ADD30C,0.048*%
%ADD31C,0.056*%
%ADD32C,0.04*%
%ADD33C,0.0671*%
%ADD34C,0.0511*%
%ADD35C,0.058*%
%ADD36C,0.042*%
%ADD37C,0.058*%
%ADD38C,0.042*%
%ADD39R,0.071X0.071*%
%ADD40R,0.055X0.055*%
%ADD41C,0.071*%
%ADD42C,0.055*%
%ADD43C,0.0671*%
%ADD44C,0.0511*%
%ADD45R,0.0671X0.0671*%
%ADD46R,0.0511X0.0511*%
%ADD47C,0.0077*%
%ADD48C,0.0124*%
%ADD49C,0.0093*%
%FSLAX44Y44*%
%SFA1B1*%
%OFA0B0*%
G04*
G70*
G90*
G75*
G01*
%LNTopMask*%
%LPD*%
D30*
X8837Y11430D3*
D45*
X5440Y18940D3*
D43*
Y19940D3*
D41*
X9440Y14440D3*
D39*
X8440D3*
D41*
X9440Y18440D3*
D39*
X8440D3*
D24*
X5440Y21440D3*
Y5440D3*
X21440D3*
Y21440D3*
D37*
X15940Y18940D3*
D35*
Y15940D3*
D37*
Y11940D3*
D35*
Y14940D3*
D37*
Y7940D3*
D35*
Y10940D3*
D37*
X7440Y7940D3*
D35*
X10440D3*
D37*
Y10940D3*
D35*
X7440D3*
D37*
X10440Y9440D3*
D35*
X7440D3*
D37*
Y12440D3*
D35*
X10440D3*
D33*
Y6440D3*
X12440D3*
X14440D3*
D45*
X11440Y17940D3*
D43*
Y16940D3*
Y15940D3*
Y14940D3*
Y13940D3*
Y12940D3*
Y11940D3*
Y10940D3*
Y9940D3*
Y8940D3*
X14432Y17940D3*
Y16940D3*
Y15940D3*
Y14940D3*
Y13940D3*
Y12940D3*
Y11940D3*
Y10940D3*
Y9940D3*
Y8940D3*
D45*
X9440Y20940D3*
D43*
X10440D3*
X11440D3*
X12440D3*
X13440D3*
X14440D3*
D45*
X21940Y18940D3*
D43*
Y17940D3*
D45*
Y13940D3*
D43*
Y12940D3*
D45*
Y8940D3*
D43*
Y7940D3*
D45*
X5440Y7440D3*
D43*
Y8440D3*
Y9440D3*
Y10440D3*
Y11440D3*
Y12440D3*
Y13440D3*
Y14440D3*
Y15440D3*
Y16440D3*
D45*
X16940Y19940D3*
D43*
Y18940D3*
Y17940D3*
X19940D3*
Y18940D3*
Y19940D3*
D45*
X16940Y14940D3*
D43*
Y13940D3*
Y12940D3*
X19940D3*
Y13940D3*
Y14940D3*
D45*
X16940Y9940D3*
D43*
Y8940D3*
Y7940D3*
X19940D3*
Y8940D3*
Y9940D3*
D31*
X10440Y15940D3*
Y16940D3*
M02*
