G04 DipTrace 2.1.9.2*
%INBottom.gbr*%
%MOIN*%
%ADD10C,0.0098*%
%ADD11C,0.006*%
%ADD12C,0.003*%
%ADD13C,0.013*%
%ADD14R,0.0591X0.0591*%
%ADD15C,0.0591*%
%ADD16C,0.063*%
%ADD17R,0.063X0.063*%
%ADD18C,0.05*%
%ADD19C,0.05*%
%ADD20C,0.0591*%
%ADD21C,0.048*%
%ADD22C,0.04*%
%ADD23C,0.0191*%
%ADD24C,0.118*%
%ADD25C,0.0354*%
%ADD26C,0.0394*%
%ADD27C,0.022*%
%ADD28C,0.032*%
%ADD29C,0.008*%
%ADD30C,0.048*%
%ADD31C,0.056*%
%ADD32C,0.04*%
%ADD33C,0.0671*%
%ADD34C,0.0511*%
%ADD35C,0.058*%
%ADD36C,0.042*%
%ADD37C,0.058*%
%ADD38C,0.042*%
%ADD39R,0.071X0.071*%
%ADD40R,0.055X0.055*%
%ADD41C,0.071*%
%ADD42C,0.055*%
%ADD43C,0.0671*%
%ADD44C,0.0511*%
%ADD45R,0.0671X0.0671*%
%ADD46R,0.0511X0.0511*%
%ADD47C,0.0077*%
%ADD48C,0.0124*%
%ADD49C,0.0093*%
%FSLAX44Y44*%
%SFA1B1*%
%OFA0B0*%
G04*
G70*
G90*
G75*
G01*
%LNBottom*%
%LPD*%
X11440Y15940D2*
D13*
X13670D1*
X13930Y16200D1*
Y20430D1*
X14440Y20940D1*
X5440Y15440D2*
X4950Y15930D1*
Y19450D1*
X5440Y19940D1*
X16940Y18940D2*
X17690Y18190D1*
Y14690D1*
X16940Y13940D1*
X9440Y14440D2*
Y18440D1*
X5440Y19940D2*
X8180D1*
X8670Y20430D1*
Y21170D1*
X8930Y21430D1*
X10950D1*
X11440Y20940D1*
X16940Y8940D2*
X16385Y8385D1*
Y6700D1*
X16125Y6440D1*
X14440D1*
X16940Y13940D2*
X17430Y13450D1*
Y9430D1*
X16940Y8940D1*
X9440Y18440D2*
Y19661D1*
X8670Y20430D1*
X14432Y13940D2*
X14922Y14430D1*
Y14922D1*
X15940Y15940D1*
X16940Y19940D2*
X16200D1*
X15940Y19680D1*
Y18940D1*
X14432Y12940D2*
X15940Y14448D1*
Y14940D1*
Y11940D2*
X16385Y12385D1*
Y14385D1*
X16940Y14940D1*
Y9940D2*
X15940Y8940D1*
Y7940D1*
X11440Y11940D2*
X10885Y11385D1*
Y8385D1*
X10440Y7940D1*
X7440Y12440D2*
Y14440D1*
X5440Y16440D1*
X10440Y20940D2*
Y18940D1*
X11440Y17940D1*
X10440Y10940D2*
Y9440D1*
X5440Y16440D2*
Y18940D1*
X9440Y20940D2*
X9950Y20430D1*
Y15200D1*
X10210Y14940D1*
X11440D1*
X14432Y15940D2*
X13922Y15430D1*
X11135D1*
X10875Y15690D1*
Y17170D1*
X11135Y17430D1*
X13180D1*
X13440Y17690D1*
Y20940D1*
X12440D2*
X12930Y21430D1*
X14670D1*
X14930Y21170D1*
Y17438D1*
X14432Y16940D1*
X10440Y6440D2*
X11930Y7930D1*
Y12450D1*
X11440Y12940D1*
X12440Y6440D2*
Y9170D1*
X12700Y9430D1*
X14662D1*
X14922Y9690D1*
Y12170D1*
X14662Y12430D1*
X13931D1*
X13671Y12690D1*
Y13680D1*
X13411Y13940D1*
X11440D1*
X14432Y9940D2*
X12700Y11672D1*
Y13170D1*
X12440Y13430D1*
X10690D1*
X9210Y11950D1*
X6845D1*
X6355Y12440D1*
X5440D1*
X8837Y11430D2*
X7930D1*
X7440Y10940D1*
X5930Y9430D1*
Y8930D1*
X5440Y8440D1*
D22*
X8837Y11430D3*
D14*
X5440Y18940D3*
D15*
Y19940D3*
D16*
X9440Y14440D3*
D17*
X8440D3*
D16*
X9440Y18440D3*
D17*
X8440D3*
D18*
X15940Y18940D3*
D19*
Y15940D3*
D18*
Y11940D3*
D19*
Y14940D3*
D18*
Y7940D3*
D19*
Y10940D3*
D18*
X7440Y7940D3*
D19*
X10440D3*
D18*
Y10940D3*
D19*
X7440D3*
D18*
X10440Y9440D3*
D19*
X7440D3*
D18*
Y12440D3*
D19*
X10440D3*
D20*
Y6440D3*
X12440D3*
X14440D3*
D14*
X11440Y17940D3*
D15*
Y16940D3*
Y15940D3*
Y14940D3*
Y13940D3*
Y12940D3*
Y11940D3*
Y10940D3*
Y9940D3*
Y8940D3*
X14432Y17940D3*
Y16940D3*
Y15940D3*
Y14940D3*
Y13940D3*
Y12940D3*
Y11940D3*
Y10940D3*
Y9940D3*
Y8940D3*
D14*
X9440Y20940D3*
D15*
X10440D3*
X11440D3*
X12440D3*
X13440D3*
X14440D3*
D14*
X21940Y18940D3*
D15*
Y17940D3*
D14*
Y13940D3*
D15*
Y12940D3*
D14*
Y8940D3*
D15*
Y7940D3*
D14*
X5440Y7440D3*
D15*
Y8440D3*
Y9440D3*
Y10440D3*
Y11440D3*
Y12440D3*
Y13440D3*
Y14440D3*
Y15440D3*
Y16440D3*
D14*
X16940Y19940D3*
D15*
Y18940D3*
Y17940D3*
X19940D3*
Y18940D3*
Y19940D3*
D14*
X16940Y14940D3*
D15*
Y13940D3*
Y12940D3*
X19940D3*
Y13940D3*
Y14940D3*
D14*
X16940Y9940D3*
D15*
Y8940D3*
Y7940D3*
X19940D3*
Y8940D3*
Y9940D3*
D21*
X10440Y15940D3*
Y16940D3*
M02*
