M48
INCH
T01C0.0191
T02C0.022
T03C0.032
T04C0.0354
T05C0.0394
T06C0.118
%
T01
X+008837Y+011430
T02
X+015940Y+018940
X+015940Y+015940
X+015940Y+014940
X+015940Y+011940
X+015940Y+010940
X+015940Y+007940
X+010440Y+007940
X+010440Y+009440
X+010440Y+010940
X+010440Y+012440
X+007440Y+012440
X+007440Y+010940
X+007440Y+009440
X+007440Y+007940
T03
X+010440Y+015940
X+010440Y+016940
T04
X+005440Y+018940
X+005440Y+019940
X+005440Y+016440
X+005440Y+015440
X+005440Y+014440
X+005440Y+013440
X+005440Y+012440
X+005440Y+011440
X+005440Y+010440
X+005440Y+009440
X+005440Y+008440
X+005440Y+007440
X+010440Y+006440
X+012440Y+006440
X+014440Y+006440
X+014432Y+008940
X+014432Y+009940
X+014432Y+010940
X+014432Y+011940
X+014432Y+012940
X+014432Y+013940
X+014432Y+014940
X+014432Y+015940
X+014432Y+016940
X+014432Y+017940
X+016940Y+017940
X+016940Y+018940
X+016940Y+019940
X+014440Y+020940
X+013440Y+020940
X+012440Y+020940
X+011440Y+020940
X+010440Y+020940
X+009440Y+020940
X+011440Y+017940
X+011440Y+016940
X+011440Y+015940
X+011440Y+014940
X+011440Y+013940
X+011440Y+012940
X+011440Y+011940
X+011440Y+010940
X+011440Y+009940
X+011440Y+008940
X+016940Y+008940
X+016940Y+009940
X+016940Y+007940
X+019940Y+007940
X+019940Y+008940
X+019940Y+009940
X+021940Y+008940
X+021940Y+007940
X+021940Y+012940
X+021940Y+013940
X+019940Y+013940
X+019940Y+012940
X+019940Y+014940
X+016940Y+014940
X+016940Y+013940
X+016940Y+012940
X+019940Y+017940
X+019940Y+018940
X+019940Y+019940
X+021940Y+018940
X+021940Y+017940
T05
X+009440Y+014440
X+008440Y+014440
X+008440Y+018440
X+009440Y+018440
T06
X+005440Y+021440
X+005440Y+005440
X+021440Y+005440
X+021440Y+021440
T00
M30
